# xmcd
#
# Track frame offsets:
#	150
#	11619
#	40355
#	55628
#	73379
#	113278
#	140983
#	157735
#	172029
#	179113
#	215782
#
# Disc length: 3052 seconds
#
# Revision: 1
# Processed by: cddbd v1.5.1PL0 Copyright (c) Steve Scherf et al.
# Submitted via: CDex 1.50Beta5
#
DISCID=a30bea0b
DTITLE=サウンドトラック - 「ひつじの涙」オリジナルCD
DYEAR=1900
DGENRE=Other
TTITLE0=トラック1
TTITLE1=トラック2
TTITLE2=トラック3
TTITLE3=トラック4
TTITLE4=トラック5
TTITLE5=トラック6
TTITLE6=トラック7
TTITLE7=トラック8
TTITLE8=トラック9
TTITLE9=トラック10
TTITLE10=トラック11
EXTD=
EXTT0=
EXTT1=
EXTT2=
EXTT3=
EXTT4=
EXTT5=
EXTT6=
EXTT7=
EXTT8=
EXTT9=
EXTT10=
PLAYORDER=
